# xmcd CD database file
#
# Track frame offsets:
#	150
#	12627
#	26498
#	40042
#	52132
#	62959
#	74556
#	85353
#	98565
#	110615
#	121458
#	132109
#	143510
#	157731
#	177558
#	189628
#	206322
#	221210
#	234998
#	245444
#
# Disc length: 3452 seconds
#
# Revision: 0
# Processed by: cddbd v1.5.2PL0 Copyright (c) Steve Scherf et al.
# Submitted via: CDex 1.51
#
DISCID=210d7a14
DTITLE=Donna Fargo - On The Move/Just For You
DYEAR=2006
DGENRE=Country
TTITLE0=Mr. Doodles
TTITLE1=Song With No Music
TTITLE2=I've Loved You All Of The Way
TTITLE3=Southern Lady
TTITLE4=If You Can't Love All Of Me
TTITLE5=(I Wanna) Sing For My Supper
TTITLE6=Patches
TTITLE7=Country Girl
TTITLE8=Nothing Good Comes Easy
TTITLE9=One Of God's Children
TTITLE10=The Utah Song
TTITLE11=Walk On By
TTITLE12=(I Was Just) Another Mountain For You To Climb
TTITLE13=Preacher Berry
TTITLE14=I Don't Know What I'd Do
TTITLE15=Show Me That You Love Me
TTITLE16=Daddy
TTITLE17=Let's Try To Fall In Love Again
TTITLE18=I Wrote This Song Just For You
TTITLE19=Can't Do The Lovin' (Without The Love)
EXTD=YEAR: 2006
EXTT0=
EXTT1=
EXTT2=
EXTT3=
EXTT4=
EXTT5=
EXTT6=
EXTT7=
EXTT8=
EXTT9=
EXTT10=
EXTT11=
EXTT12=
EXTT13=
EXTT14=
EXTT15=
EXTT16=
EXTT17=
EXTT18=
EXTT19=
PLAYORDER=
